<?xml version="1.0" encoding="UTF-8" standalone="no" ?>
<!DOCTYPE svg PUBLIC "-//W3C//DTD SVG 1.1//EN" "http://www.w3.org/Graphics/SVG/1.1/DTD/svg11.dtd">
<svg xmlns="http://www.w3.org/2000/svg" xmlns:xlink="http://www.w3.org/1999/xlink" version="1.1" width="400" height="400" viewBox="0 0 400 400" xml:space="preserve">
<desc>Created with Fabric.js 3.6.2</desc>
<defs>
</defs>
<g transform="matrix(6.25 0 0 6.25 200 200)" id="Instagram"  >
<path style="stroke: none; stroke-width: 1; stroke-dasharray: none; stroke-linecap: butt; stroke-dashoffset: 0; stroke-linejoin: miter; stroke-miterlimit: 4; fill: rgb(1,1,1); fill-rule: nonzero; opacity: 1;"  transform=" translate(-16, -16)" d="M 21 30 H 11 a 9 9 0 0 1 -9 -9 V 11 a 9 9 0 0 1 9 -9 H 21 a 9 9 0 0 1 9 9 V 21 A 9 9 0 0 1 21 30 Z M 11 4 a 7 7 0 0 0 -7 7 V 21 a 7 7 0 0 0 7 7 H 21 a 7 7 0 0 0 7 -7 V 11 a 7 7 0 0 0 -7 -7 Z" stroke-linecap="round" />
</g>
<g transform="matrix(6.25 0 0 6.25 200 200)" id="Instagram"  >
<path style="stroke: none; stroke-width: 1; stroke-dasharray: none; stroke-linecap: butt; stroke-dashoffset: 0; stroke-linejoin: miter; stroke-miterlimit: 4; fill: rgb(1,1,1); fill-rule: nonzero; opacity: 1;"  transform=" translate(-16, -16)" d="M 16 23 a 6.89 6.89 0 0 1 -3 -0.66 a 1 1 0 0 1 0.85 -1.81 a 5 5 0 1 0 -2.21 -2 a 1 1 0 1 1 -1.73 1 A 6.93 6.93 0 0 1 9 16 a 7 7 0 1 1 7 7 Z" stroke-linecap="round" />
</g>
<g transform="matrix(6.25 0 0 6.25 246.88 153.13)" id="Instagram"  >
<circle style="stroke: none; stroke-width: 1; stroke-dasharray: none; stroke-linecap: butt; stroke-dashoffset: 0; stroke-linejoin: miter; stroke-miterlimit: 4; fill: rgb(1,1,1); fill-rule: nonzero; opacity: 1;"  cx="0" cy="0" r="1.5" />
</g>
</svg>