<?xml version="1.0" encoding="UTF-8" standalone="no" ?>
<!DOCTYPE svg PUBLIC "-//W3C//DTD SVG 1.1//EN" "http://www.w3.org/Graphics/SVG/1.1/DTD/svg11.dtd">
<svg xmlns="http://www.w3.org/2000/svg" xmlns:xlink="http://www.w3.org/1999/xlink" version="1.1" width="400" height="400" viewBox="0 0 400 400" xml:space="preserve">
<desc>Created with Fabric.js 3.6.2</desc>
<defs>
</defs>
<g transform="matrix(11.77 0 0 11.77 200 200)" id="Layer_1"  >
<path style="stroke: rgb(0,0,0); stroke-width: 1.8889; stroke-dasharray: none; stroke-linecap: butt; stroke-dashoffset: 0; stroke-linejoin: miter; stroke-miterlimit: 10; fill: none; fill-rule: nonzero; opacity: 1;"  transform=" translate(-12, -12)" d="M 12.944 1.611 v 14.167 c 0 1.565 -1.269 2.833 -2.833 2.833 h 0 c -1.565 0 -2.833 -1.269 -2.833 -2.833 v 0 c 0 -1.565 1.269 -2.833 2.833 -2.833 h 0 V 9.167 h 0 c -3.651 0 -6.611 2.96 -6.611 6.611 v 0 c 0 3.651 2.96 6.611 6.611 6.611 h 0 c 3.651 0 6.611 -2.96 6.611 -6.611 V 9.167 l 0.199 0.1 c 1.111 0.556 2.336 0.845 3.578 0.845 h 0 V 6.333 l -0.113 -0.028 c -2.154 -0.538 -3.665 -2.474 -3.665 -4.694 v 0 H 12.944 z" stroke-linecap="round" />
</g>
</svg>